<?xml version="1.0" encoding="UTF-8" standalone="no"?>
<svg width="38px" height="40px" viewBox="0 0 38 40" version="1.1" xmlns="http://www.w3.org/2000/svg" xmlns:xlink="http://www.w3.org/1999/xlink">
    <!-- Generator: Sketch 39.1 (31720) - http://www.bohemiancoding.com/sketch -->
    <title>Group 7</title>
    <desc>Created with Sketch.</desc>
    <defs>
        <polygon id="path-1" points="0 -7.49237806e-05 0 18.8163904 20.8976286 18.8163904 20.8976286 -7.49237806e-05 0 -7.49237806e-05"></polygon>
    </defs>
    <g id="Page-1" stroke="none" stroke-width="1" fill="none" fill-rule="evenodd">
        <g id="Listagem-1024" transform="translate(-951.000000, -2250.000000)">
            <g id="Group-7" transform="translate(951.000000, 2250.000000)">
                <path d="M-7.10542736e-15,0 L33.9986293,0 C36.2085253,0 38,1.79642476 38,4.00002553 L38,35.9999745 C38,38.2091276 36.2158448,40 33.9986293,40 L-3.55271368e-15,40 L0,5.32907052e-15 Z" id="Combined-Shape" fill="#ffffff"></path>
                <g id="Page-1" transform="translate(9.000000, 11.000000)">
                    <mask id="mask-2" fill="white">
                        <use xlink:href="#path-1"></use>
                    </mask>
                    <g id="Clip-2"></g>
                    <path d="M20.536127,8.32138529 L14.202073,0.607385294 C13.6259919,-0.0944970588 12.5708838,-0.204585294 11.8574514,0.363179412 C11.1445865,0.930944118 11.0327757,1.96979706 11.6088568,2.67167941 L15.3099649,7.17915 L2.26442432,7.17915 C1.01861351,7.17915 -0.000170270272,8.18223824 -0.000170270272,9.40829706 C-0.000170270272,10.6343559 1.01861351,11.6380029 2.26442432,11.6380029 L15.3099649,11.6380029 L11.6088568,16.1449147 C11.0327757,16.8467971 11.1445865,17.88565 11.8574514,18.4534147 C12.5708838,19.0206206 13.6259919,18.9110912 14.202073,18.20865 L20.536127,10.4957676 C20.7972081,10.1766794 20.9101541,9.78941471 20.8965324,9.40829706 C20.9101541,9.02662059 20.7972081,8.63935588 20.536127,8.32138529" id="Fill-1" fill="#343434" mask="url(#mask-2)"></path>
                </g>
            </g>
        </g>
    </g>
</svg>