<svg width="65px" height="33px" viewBox="0 0 65 33" version="1.1" xmlns="http://www.w3.org/2000/svg" xmlns:xlink="http://www.w3.org/1999/xlink">
    <title>Segurança</title>
    <defs>
        <polygon id="path-1" points="25 16.4999214 25 0 0 0 0 16.4999214 0 32.9998429 25 32.9998429 25 16.4999214"></polygon>
    </defs>
    <g id="Page-1" stroke="none" stroke-width="1" fill="none" fill-rule="evenodd">
        <g id="Home-320" transform="translate(-19.000000, -2943.000000)">
            <g id="Group-10" transform="translate(0.000000, 2199.000000)">
                <g id="Group-8" transform="translate(19.000000, 744.000000)">
                    <path d="M40.5517578,24.7744141 C40.5517578,24.1884736 40.3320334,23.6977559 39.8925781,23.3022461 C39.4531228,22.9067363 38.6738337,22.5742201 37.5546875,22.3046875 C36.2011651,21.9824203 35.1450233,21.5078156 34.3862305,20.8808594 C33.6274376,20.2539031 33.2480469,19.4658251 33.2480469,18.5166016 C33.2480469,17.5205028 33.6567342,16.6884799 34.4741211,16.0205078 C35.291508,15.3525357 36.3505794,15.0185547 37.6513672,15.0185547 C39.0517648,15.0185547 40.1664998,15.4023399 40.9956055,16.1699219 C41.8247112,16.9375038 42.2246095,17.8281199 42.1953125,18.8417969 L42.1777344,18.8945312 L40.5253906,18.8945312 C40.5253906,18.1445275 40.2778345,17.5380883 39.7827148,17.0751953 C39.2875952,16.6123024 38.5771531,16.3808594 37.6513672,16.3808594 C36.7900348,16.3808594 36.1293968,16.5756816 35.6694336,16.965332 C35.2094704,17.3549824 34.9794922,17.8632781 34.9794922,18.4902344 C34.9794922,19.0468778 35.2285131,19.5112286 35.7265625,19.8833008 C36.2246119,20.255373 37.0331975,20.5820298 38.1523438,20.8632812 C39.5000067,21.1972673 40.5253871,21.6894499 41.2285156,22.3398438 C41.9316441,22.9902376 42.2832031,23.7958936 42.2832031,24.7568359 C42.2832031,25.7880911 41.8613323,26.6171844 41.0175781,27.2441406 C40.1738239,27.8710969 39.0722724,28.1845703 37.7128906,28.1845703 C36.4355405,28.1845703 35.3061573,27.8388706 34.324707,27.1474609 C33.3432568,26.4560512 32.8671874,25.5302792 32.8964844,24.3701172 L32.9140625,24.3173828 L34.5664063,24.3173828 C34.5664063,25.1376994 34.868161,25.7617166 35.4716797,26.1894531 C36.0751983,26.6171896 36.8222612,26.8310547 37.7128906,26.8310547 C38.5859419,26.8310547 39.2773412,26.6464862 39.7871094,26.2773438 C40.2968775,25.9082013 40.5517578,25.4072297 40.5517578,24.7744141 L40.5517578,24.7744141 Z M52.2973906,24.7744141 C52.2973906,24.1884736 52.0776662,23.6977559 51.6382109,23.3022461 C51.1987556,22.9067363 50.4194665,22.5742201 49.3003203,22.3046875 C47.9467979,21.9824203 46.8906561,21.5078156 46.1318632,20.8808594 C45.3730704,20.2539031 44.9936796,19.4658251 44.9936796,18.5166016 C44.9936796,17.5205028 45.402367,16.6884799 46.2197539,16.0205078 C47.0371408,15.3525357 48.0962122,15.0185547 49.397,15.0185547 C50.7973976,15.0185547 51.9121325,15.4023399 52.7412382,16.1699219 C53.5703439,16.9375038 53.9702423,17.8281199 53.9409453,18.8417969 L53.9233671,18.8945312 L52.2710234,18.8945312 C52.2710234,18.1445275 52.0234673,17.5380883 51.5283476,17.0751953 C51.0332279,16.6123024 50.3227858,16.3808594 49.397,16.3808594 C48.5356675,16.3808594 47.8750296,16.5756816 47.4150664,16.965332 C46.9551031,17.3549824 46.725125,17.8632781 46.725125,18.4902344 C46.725125,19.0468778 46.9741459,19.5112286 47.4721953,19.8833008 C47.9702446,20.255373 48.7788303,20.5820298 49.8979765,20.8632812 C51.2456395,21.1972673 52.2710199,21.6894499 52.9741484,22.3398438 C53.6772769,22.9902376 54.0288359,23.7958936 54.0288359,24.7568359 C54.0288359,25.7880911 53.6069651,26.6171844 52.7632109,27.2441406 C51.9194567,27.8710969 50.8179052,28.1845703 49.4585234,28.1845703 C48.1811733,28.1845703 47.05179,27.8388706 46.0703398,27.1474609 C45.0888896,26.4560512 44.6128201,25.5302792 44.6421171,24.3701172 L44.6596953,24.3173828 L46.312039,24.3173828 C46.312039,25.1376994 46.6137938,25.7617166 47.2173125,26.1894531 C47.8208311,26.6171896 48.5678939,26.8310547 49.4585234,26.8310547 C50.3315746,26.8310547 51.022974,26.6464862 51.5327421,26.2773438 C52.0425103,25.9082013 52.2973906,25.4072297 52.2973906,24.7744141 L52.2973906,24.7744141 Z M58.8047421,26.6464844 L64.8604062,26.6464844 L64.8604062,28 L57.0732968,28 L57.0732968,15.203125 L58.8047421,15.203125 L58.8047421,26.6464844 Z" id="SSL-Copy" fill="#FFFFFF"></path>
                    <g id="Page-1-Copy-7">
                        <mask id="mask-2" fill="white">
                            <use xlink:href="#path-1"></use>
                        </mask>
                        <g id="Clip-2"></g>
                        <path d="M12.5,3.1427 C9.9109375,3.1427 7.8125,5.25312857 7.8125,7.85698571 L7.8125,10.9998429 L17.1875,10.9998429 L17.1875,7.85698571 C17.1875,5.25312857 15.0890625,3.1427 12.5,3.1427 M21.875,10.9998429 C23.6,10.9998429 25,12.4078429 25,14.1427 L25,29.8569857 C25,31.5934143 23.6,32.9998429 21.875,32.9998429 L3.125,32.9998429 C1.4,32.9998429 0,31.5934143 0,29.8569857 L0,14.1427 C0,12.3984143 1.40625,10.9998429 3.125,10.9998429 L4.6875,10.9998429 L4.6875,7.85698571 C4.6875,3.51827143 8.1859375,-0.000157142858 12.5,-0.000157142858 C16.815625,-0.000157142858 20.3125,3.51827143 20.3125,7.85698571 L20.3125,10.9998429 L21.875,10.9998429 M12.5,25.1427 C14.225,25.1427 15.625,23.7362714 15.625,21.9998429 C15.625,20.2555571 14.21875,18.8569857 12.5,18.8569857 C10.775,18.8569857 9.375,20.2649857 9.375,21.9998429 C9.375,23.7362714 10.775,25.1427 12.5,25.1427" id="Fill-1" fill="#FFFFFF" mask="url(#mask-2)"></path>
                    </g>
                </g>
            </g>
        </g>
    </g>
</svg>